<svg xmlns="http://www.w3.org/2000/svg" viewBox="0 0 40 56" width="40" height="56" fill="none">
  <defs>
    <linearGradient id="flame" x1="20" y1="56" x2="20" y2="0" gradientUnits="userSpaceOnUse">
      <stop offset="0%" stop-color="#FF3D00"/>
      <stop offset="60%" stop-color="#FF7A00"/>
      <stop offset="100%" stop-color="#FFB700"/>
    </linearGradient>
  </defs>
  <!-- Flamme principale -->
  <path
    d="M20 2
       C20 2 32 12 32 24
       C32 30 28 35 24 37
       C26 33 25 29 22 27
       C22 32 19 36 16 38
       C12 35 8 30 8 24
       C8 14 16 6 20 2Z"
    fill="url(#flame)"
  />
  <!-- Coeur intérieur -->
  <path
    d="M20 18
       C20 18 25 23 25 28
       C25 32 22.5 35 20 36
       C17.5 35 15 32 15 28
       C15 23 20 18 20 18Z"
    fill="#FFB700"
    opacity="0.35"
  />
  <!-- Base arrondie -->
  <ellipse cx="20" cy="50" rx="8" ry="4" fill="url(#flame)" opacity="0.3"/>
</svg>
