<svg version="1.1" xmlns="http://www.w3.org/2000/svg" style="display: block;" viewBox="0 0 2048 707" width="935" height="323" preserveAspectRatio="none">
<defs>
	<linearGradient id="Gradient1" gradientUnits="userSpaceOnUse" x1="1657.13" y1="485.641" x2="1684.07" y2="312.08">
		<stop class="stop0" offset="0" stop-opacity="1" stop-color="rgb(30,29,28)"/>
		<stop class="stop1" offset="1" stop-opacity="1" stop-color="rgb(63,62,62)"/>
	</linearGradient>
	<linearGradient id="Gradient2" gradientUnits="userSpaceOnUse" x1="569.424" y1="434.048" x2="583.305" y2="312.212">
		<stop class="stop0" offset="0" stop-opacity="1" stop-color="rgb(34,32,32)"/>
		<stop class="stop1" offset="1" stop-opacity="1" stop-color="rgb(60,60,61)"/>
	</linearGradient>
	<linearGradient id="Gradient3" gradientUnits="userSpaceOnUse" x1="1606.23" y1="436.501" x2="1581.34" y2="385.069">
		<stop class="stop0" offset="0" stop-opacity="1" stop-color="rgb(227,132,58)"/>
		<stop class="stop1" offset="1" stop-opacity="1" stop-color="rgb(215,156,101)"/>
	</linearGradient>
	<linearGradient id="Gradient4" gradientUnits="userSpaceOnUse" x1="1551.86" y1="434.268" x2="1556.62" y2="312.594">
		<stop class="stop0" offset="0" stop-opacity="1" stop-color="rgb(37,36,36)"/>
		<stop class="stop1" offset="1" stop-opacity="1" stop-color="rgb(64,65,65)"/>
	</linearGradient>
	<linearGradient id="Gradient5" gradientUnits="userSpaceOnUse" x1="1386.05" y1="486.36" x2="1383.12" y2="357.315">
		<stop class="stop0" offset="0" stop-opacity="1" stop-color="rgb(31,29,28)"/>
		<stop class="stop1" offset="1" stop-opacity="1" stop-color="rgb(55,55,55)"/>
	</linearGradient>
	<linearGradient id="Gradient6" gradientUnits="userSpaceOnUse" x1="726.204" y1="490.637" x2="739.614" y2="357.357">
		<stop class="stop0" offset="0" stop-opacity="1" stop-color="rgb(29,28,28)"/>
		<stop class="stop1" offset="1" stop-opacity="1" stop-color="rgb(54,54,54)"/>
	</linearGradient>
	<linearGradient id="Gradient7" gradientUnits="userSpaceOnUse" x1="1778.98" y1="490.576" x2="1791.73" y2="357.07">
		<stop class="stop0" offset="0" stop-opacity="1" stop-color="rgb(27,26,25)"/>
		<stop class="stop1" offset="1" stop-opacity="1" stop-color="rgb(55,55,55)"/>
	</linearGradient>
	<linearGradient id="Gradient8" gradientUnits="userSpaceOnUse" x1="249.869" y1="658.446" x2="254.012" y2="46.3503">
		<stop class="stop0" offset="0" stop-opacity="1" stop-color="rgb(21,20,20)"/>
		<stop class="stop1" offset="1" stop-opacity="1" stop-color="rgb(83,83,83)"/>
	</linearGradient>
</defs>
<path transform="translate(0,0)" fill="url(#Gradient8)" d="M 345.397 41.2811 C 384.685 79.1532 395.832 125.383 372.38 175.911 C 368.788 183.651 351.43 202.716 360.031 209.838 C 375.597 213.758 385.574 190.509 389.591 179.113 C 388.677 207.434 382.82 211.426 366.209 233.688 C 343.146 264.596 376.097 285.741 397.389 251.585 C 409.668 231.887 410.293 209.701 405.245 187.35 C 406.886 188.982 409.688 191.736 411.061 193.489 C 428.264 215.451 435.825 244.465 424.578 270.897 C 420.056 281.629 413.639 289.749 412.663 301.667 C 411.475 316.185 422.817 329.684 435.822 316.782 C 447.037 305.657 445.699 285.01 445.868 270.27 C 458.73 295.977 461.61 316.183 454.93 344.975 C 443.192 395.57 403.591 419.86 362.612 444.636 C 377.645 440.541 388.396 436.734 402.967 431.079 C 398.253 485.937 371.026 531.052 316.884 549.679 C 286.468 560.143 256.711 558.213 225.042 558.173 C 218.488 589.029 211.263 633.158 203.221 662.163 C 198.894 657.145 187.876 647.507 182.358 641.763 C 167.271 625.808 153.851 608.355 142.304 589.678 C 144.433 573.64 148.697 555.218 152.114 539.236 C 156.94 516.455 161.618 493.642 166.149 470.8 C 169.91 452.537 174.086 434.692 176.448 416.178 C 201.169 416.035 226.182 415.692 250.879 415.865 C 246.784 440.247 241.542 464.556 237.263 488.955 C 278.551 489.478 319.306 490.876 323.339 437.595 C 326.862 391.058 276.413 400.177 245.461 399.276 C 210.318 398.253 174.312 400.383 139.082 399.147 C 154.441 383.536 172.14 369.649 188.229 354.763 C 196.688 346.936 205.128 339.078 213.66 331.333 C 201.864 322.794 156.737 367.965 147.184 376.004 C 131.834 392.228 118.412 407.303 108.76 427.873 C 104.495 440.045 101.922 447.508 100.2 460.535 C 100.989 462.09 100.59 461.894 101.872 462.53 C 106.537 460.638 113.028 446.108 117.304 440.037 C 125.273 428.724 135.062 421.165 146.637 413.794 C 139.902 422.274 119.424 447.538 130.557 457.28 C 142.132 459.813 150.163 437.206 151.68 428.776 C 152.201 425.769 152.574 422.739 152.8 419.696 C 168.402 489.593 92.915 486.288 127.857 583.933 C 139.587 609.377 154.56 627.844 174.276 647.766 C 182.39 654.374 184.957 656.85 193.815 662.656 C 149.742 645.498 98.1065 619.569 74.902 576.002 C 80.4311 580.821 95.9137 593.737 103.314 590.198 L 103.314 587.767 C 99.1253 579.179 81.036 564.778 73.6897 557.204 C 53.2156 536.095 47.0419 522.018 46.4694 493.905 C 47.2155 496.396 48.0563 498.858 48.9901 501.284 C 51.8459 508.547 60.2704 524.202 70.1157 519.766 C 76.6252 510.172 58.8467 484.829 55.0766 474.205 C 41.5894 436.201 49.5231 401.697 78.4274 372.535 C 73.0167 383.886 60.278 415.828 76.2795 423.381 C 95.9248 423.013 94.2344 376.963 95.2354 363.323 C 98.0277 325.274 110.858 287.841 146.946 269.078 C 156.933 263.885 167.821 257.171 175.935 249.507 C 169.236 271.605 160.011 274.913 144.727 290.56 C 136.885 298.589 133.513 320.299 152.522 316.679 C 185.114 310.471 189.529 268.252 199.989 242.625 C 214.168 205.567 239.121 180.807 279.562 175.474 C 269.794 180.455 230.137 207.71 250.872 225.778 C 253.349 227.936 264.316 225.782 267.629 223.917 C 299.882 205.752 324.71 169.278 340.02 136.213 C 353.06 104.488 358.161 72.9684 345.397 41.2811 z"/>
<path transform="translate(0,0)" fill="rgb(232,149,63)" d="M 358.535 150.346 C 353.954 174.624 346.925 187.764 333.76 209.816 C 316.962 237.815 286.2 260.825 280.543 294.221 C 279.527 300.216 281.711 305.721 288.366 305.904 C 309.011 306.471 314.53 279.633 324.422 266.113 C 328.307 260.803 330.611 258.492 335.485 254.167 C 326.291 276.204 312.72 323.366 357.763 314.713 C 360.681 314.152 366.267 311.055 369.11 309.606 C 383.244 306.591 384.538 298.827 393.272 292.687 L 395.872 293.893 C 390.372 311.074 383.144 331.127 391.554 348.6 C 397.279 360.494 412.146 360.246 422.099 354.454 C 428.315 350.837 431.369 346.441 435.535 340.672 C 424.686 384.385 392.557 412.673 355.712 435.496 C 368.183 422.245 391.686 399.176 391.282 380.143 C 391.081 370.716 383.314 361.481 376.544 355.526 C 349.629 331.854 317.879 332.532 284.717 332.545 L 238.865 332.688 C 232.992 332.717 218.395 333.394 213.66 331.333 C 201.864 322.794 156.737 367.965 147.184 376.004 C 146.42 364.913 165.718 353.74 166.467 339.965 C 185.188 320.429 206.187 298.736 215.452 272.754 C 217.601 266.73 220.064 260.672 222.32 254.667 C 229.386 269.062 219.904 295.469 214.296 309.201 C 228.499 294.38 245.734 281.08 260.708 266.827 C 288.679 240.204 319.086 215.96 340.73 183.472 C 347.727 172.97 353.028 161.652 358.535 150.346 z"/>
<path transform="translate(0,0)" fill="rgb(216,101,41)" d="M 101.872 462.53 C 106.537 460.638 113.028 446.108 117.304 440.037 C 125.273 428.724 135.062 421.165 146.637 413.794 C 139.902 422.274 119.424 447.538 130.557 457.28 C 142.132 459.813 150.163 437.206 151.68 428.776 C 152.201 425.769 152.574 422.739 152.8 419.696 C 168.402 489.593 92.915 486.288 127.857 583.933 C 139.587 609.377 154.56 627.844 174.276 647.766 C 163.189 648.914 128.159 611.057 118.977 602.684 C 116.68 600.59 118.341 589.325 115.114 584.432 C 104.207 567.894 90.3984 553.786 80.3307 536.661 C 80.5235 536.455 80.7151 536.248 80.9055 536.04 C 99.8088 515.329 83.5784 498.545 75.6247 476.729 C 71.3428 464.984 70.2148 461.549 69.6199 449.098 C 72.7093 452.537 76.3087 457.642 80.9553 458.636 C 96.3728 461.936 103.968 436.665 106.931 425.451 L 108.76 427.873 C 104.495 440.045 101.922 447.508 100.2 460.535 C 100.989 462.09 100.59 461.894 101.872 462.53 z"/>
<path transform="translate(0,0)" fill="rgb(40,39,39)" d="M 101.872 462.53 C 106.537 460.638 113.028 446.108 117.304 440.037 C 125.273 428.724 135.062 421.165 146.637 413.794 C 139.902 422.274 119.424 447.538 130.557 457.28 C 142.132 459.813 150.163 437.206 151.68 428.776 C 152.201 425.769 152.574 422.739 152.8 419.696 C 168.402 489.593 92.915 486.288 127.857 583.933 L 126.538 584.319 C 126.024 584.049 125.011 583.408 124.713 582.903 C 110.133 558.43 99.5946 528.249 108.949 499.976 C 110.381 495.648 111.968 491.856 113.822 487.724 C 115.193 484.667 118.394 479.223 118.677 476.158 L 116.982 475.987 C 109.712 479.394 104.454 487.675 99.5377 494.142 C 98.5369 480.071 101.588 477.279 103.686 464.271 L 101.872 462.53 z"/>
<path transform="translate(0,0)" fill="rgb(216,101,41)" d="M 106.931 425.451 C 116.315 392.98 108.715 362.108 127.105 332.617 L 126.937 338.636 C 125.723 389.223 148.854 359.579 166.467 339.965 C 165.718 353.74 146.42 364.913 147.184 376.004 C 131.834 392.228 118.412 407.303 108.76 427.873 L 106.931 425.451 z"/>
<path transform="translate(0,0)" fill="rgb(216,101,41)" d="M 402.781 273.809 C 400.695 280.577 398.39 287.275 395.872 293.893 L 393.272 292.687 C 384.538 298.827 383.244 306.591 369.11 309.606 C 383.603 298.415 391.396 287.791 402.781 273.809 z"/>
<path transform="translate(0,0)" fill="rgb(40,39,39)" d="M 1179.38 473.729 C 1158.5 454.24 1151.67 423.958 1162.16 397.391 C 1172.66 370.824 1198.34 353.383 1226.9 353.422 C 1255.46 353.461 1281.09 370.972 1291.51 397.567 C 1310.76 423.997 1304.07 470.654 1276.91 490.508 C 1250.61 509.739 1194.37 505.773 1179.38 473.729 z M 1248.76 401.945 C 1212.59 392.465 1207.3 421.792 1210.32 450.12 C 1213.95 454.8 1217.16 456.356 1222.97 456.9 C 1256.07 459.995 1255.64 424.434 1248.76 401.945 z"/>
<path transform="translate(0,0)" fill="rgb(218,135,72)" d="M 1291.51 397.567 C 1310.76 423.997 1304.07 470.654 1276.91 490.508 C 1250.61 509.739 1194.37 505.773 1179.38 473.729 C 1203.11 495.875 1239.01 498.65 1265.85 480.414 C 1292.7 462.178 1303.36 427.787 1291.51 397.567 z"/>
<path transform="translate(0,0)" fill="rgb(232,149,63)" d="M 1210.32 450.12 C 1207.72 449.333 1206.26 447.439 1205.01 444.908 C 1194.56 423.619 1203.05 381.59 1234.54 390.261 C 1240.89 392.011 1245.64 395.99 1248.76 401.945 C 1212.59 392.465 1207.3 421.792 1210.32 450.12 z"/>
<path transform="translate(0,0)" fill="url(#Gradient7)" d="M 1718.85 398.977 C 1719.25 396.97 1719.71 394.976 1720.23 392.997 C 1730.51 354.753 1769.34 350.493 1803.6 357.595 C 1818.37 360.658 1829.69 371.128 1837.09 384.099 C 1852.73 407.589 1843.99 429.608 1848.27 456.163 L 1848.25 456.806 L 1848.37 457.13 C 1851.33 464.606 1855.41 464.198 1856.29 470.272 C 1857.33 477.444 1857.14 491.251 1856.38 498.415 C 1838.26 501.921 1818.9 504.329 1808.75 485.54 C 1802.87 489.536 1796.83 495.576 1790.26 498.318 C 1768.68 507.332 1734.18 501.283 1724.06 478.027 C 1716.94 465.975 1712.17 452.341 1717.45 438.348 C 1723.3 422.86 1740.2 416.58 1754.18 410.388 C 1745.37 409.932 1734.59 410.201 1725.62 410.213 C 1720.94 408.71 1722.33 409.722 1719.23 406.462 C 1718.11 403.113 1718.21 402.492 1718.85 398.977 z M 1796.8 398.851 C 1786.56 396.111 1763.66 397.147 1760.07 409.022 L 1760.7 410.36 C 1771.53 408.245 1785.36 409.255 1796.24 406.975 C 1797.42 405.314 1796.89 401.154 1796.8 398.851 z M 1763.46 458.788 C 1764.49 459.208 1765.55 459.554 1766.63 459.823 C 1781.76 463.719 1793.39 457.337 1797.39 442.034 C 1787.52 443.902 1769.75 445.769 1763.04 452.886 C 1762.16 456.247 1762.36 455.161 1763.46 458.788 z"/>
<path transform="translate(0,0)" fill="rgb(218,135,72)" d="M 1802.08 469.144 C 1803.23 477.035 1803.31 479.515 1808.75 485.54 C 1802.87 489.536 1796.83 495.576 1790.26 498.318 C 1768.68 507.332 1734.18 501.283 1724.06 478.027 C 1750.41 498.34 1781.5 495.881 1802.08 469.144 z"/>
<path transform="translate(0,0)" fill="rgb(232,149,63)" d="M 1756.49 399.682 C 1759.39 394.249 1761.17 391.094 1767.22 388.332 C 1777.59 383.592 1795.09 384.381 1796.8 398.851 C 1786.56 396.111 1763.66 397.147 1760.07 409.022 L 1760.7 410.36 C 1758.36 411.317 1756.33 411.483 1754.18 410.388 C 1745.37 409.932 1734.59 410.201 1725.62 410.213 C 1720.94 408.71 1722.33 409.722 1719.23 406.462 C 1718.11 403.113 1718.21 402.492 1718.85 398.977 C 1722.59 400.374 1724.8 400.126 1728.73 400.06 C 1737.01 399.597 1747.99 399.792 1756.49 399.682 z"/>
<path transform="translate(0,0)" fill="rgb(252,250,248)" d="M 1718.85 398.977 C 1722.59 400.374 1724.8 400.126 1728.73 400.06 C 1728.25 404.97 1728.03 405.885 1725.62 410.213 C 1720.94 408.71 1722.33 409.722 1719.23 406.462 C 1718.11 403.113 1718.21 402.492 1718.85 398.977 z"/>
<path transform="translate(0,0)" fill="rgb(218,135,72)" d="M 1848.25 456.806 L 1848.37 457.13 C 1851.33 464.606 1855.41 464.198 1856.29 470.272 C 1857.33 477.444 1857.14 491.251 1856.38 498.415 C 1838.26 501.921 1818.9 504.329 1808.75 485.54 C 1821.66 491.557 1834.68 489.82 1848.32 486.741 C 1849.2 477.157 1848.19 466.629 1848.25 456.806 z"/>
<path transform="translate(0,0)" fill="rgb(218,135,72)" d="M 1837.09 384.099 C 1852.73 407.589 1843.99 429.608 1848.27 456.163 C 1845.09 455.69 1843.52 455.635 1840.75 454.036 C 1839.14 451.467 1838.05 394.29 1837.09 384.099 z"/>
<path transform="translate(0,0)" fill="rgb(218,135,72)" d="M 1763.46 458.788 C 1760.51 458.21 1758.02 456.029 1756.18 453.781 C 1750.12 437.778 1784.12 429.482 1795.79 432.349 C 1797.23 434.418 1797.13 439.065 1797.39 442.034 C 1787.52 443.902 1769.75 445.769 1763.04 452.886 C 1762.16 456.247 1762.36 455.161 1763.46 458.788 z"/>
<path transform="translate(0,0)" fill="url(#Gradient6)" d="M 669.75 399.755 C 668.717 398.48 667.956 397.99 668.148 396.213 C 671.848 364.414 699.662 355.051 727.995 355.226 C 750.424 355.365 770.322 360.307 782.28 381.426 C 785.466 387.052 786.594 392.092 786.549 398.553 C 797.681 421.362 789.748 446.128 794.271 455.281 C 794.93 456.552 795.99 458.377 796.289 459.71 C 803.297 471.392 803.181 484.138 803.019 497.719 C 782.944 501.428 768.401 501.268 753.357 486.393 C 732.603 507.014 688.991 508.362 674.038 481.397 C 670.308 476.001 666.824 471.033 664.674 464.78 C 661.437 455.383 662.097 445.081 666.507 436.173 C 673.967 421.005 688.368 415.427 703.202 410.282 C 694.362 410.076 685.534 409.513 676.739 408.594 C 674.297 405.756 672.032 402.727 669.75 399.755 z M 747.394 407.33 C 745.595 404.148 745.4 403.257 744.547 399.67 C 728.328 392.069 719.259 399.901 705.954 408.948 C 716.94 409.594 735.805 408.079 747.394 407.33 z M 744.839 441.433 C 727.941 445.359 719.817 446.318 705.004 455.285 C 720.446 466.164 740.233 461.651 744.839 441.433 z"/>
<path transform="translate(0,0)" fill="rgb(218,135,72)" d="M 795.542 486.616 C 796.3 478.393 794.736 466.489 796.289 459.71 C 803.297 471.392 803.181 484.138 803.019 497.719 C 782.944 501.428 768.401 501.268 753.357 486.393 C 732.603 507.014 688.991 508.362 674.038 481.397 C 689.473 488.806 695.29 490.61 712.644 490.937 C 726.346 488.548 730.802 486.452 741.835 478.057 C 744.089 475.069 746.681 472.047 749.078 469.15 C 750.987 476.756 751.368 480.983 758.628 485.654 C 768.152 491.781 785.093 489.061 795.542 486.616 z"/>
<path transform="translate(0,0)" fill="rgb(216,101,41)" d="M 712.644 490.937 C 726.346 488.548 730.802 486.452 741.835 478.057 C 739.409 492.599 724.072 492.615 712.644 490.937 z"/>
<path transform="translate(0,0)" fill="rgb(232,149,63)" d="M 704.92 399.427 C 713.606 381.873 740.265 379.133 744.547 399.67 C 728.328 392.069 719.259 399.901 705.954 408.948 L 705.526 409.741 L 706.465 410.811 L 703.202 410.282 C 694.362 410.076 685.534 409.513 676.739 408.594 C 674.297 405.756 672.032 402.727 669.75 399.755 C 681.474 399.944 693.201 399.834 704.92 399.427 z"/>
<path transform="translate(0,0)" fill="rgb(218,135,72)" d="M 786.549 398.553 C 797.681 421.362 789.748 446.128 794.271 455.281 C 791.411 454.976 789.967 455.046 787.712 453.319 C 785.521 447.712 785.691 405.728 786.549 398.553 z"/>
<path transform="translate(0,0)" fill="rgb(218,135,72)" d="M 705.004 455.285 C 697.275 435.224 731.848 428.642 744.138 431.701 C 745.673 434.104 744.998 438.4 744.839 441.433 C 727.941 445.359 719.817 446.318 705.004 455.285 z"/>
<path transform="translate(0,0)" fill="rgb(40,39,39)" d="M 1996.74 357.974 L 1994.84 365.716 C 1997.57 366.58 2002.03 367.497 2003.5 369.685 C 2002.15 380.355 1987.16 417.844 1982.62 429.454 C 1971.16 458.248 1961.38 487.984 1947.75 515.846 C 1943.57 524.413 1939.44 530.095 1932.27 536.351 C 1918.05 548.772 1877.01 555.676 1868.86 533.462 L 1862.64 529.374 C 1865.31 519.363 1868.21 508.5 1871.78 498.822 C 1887.09 504.561 1896.32 505.37 1905.91 490.497 C 1901.65 477.001 1893.55 457.997 1888.22 444.375 L 1854.33 358.043 L 1898.08 358.034 C 1912.79 385.816 1917.9 404.24 1929.26 432.772 C 1932.22 426.483 1935.88 413.775 1938.26 406.536 C 1943.7 390.541 1948.9 374.468 1953.87 358.322 C 1967.77 357.556 1982.74 357.901 1996.74 357.974 z"/>
<path transform="translate(0,0)" fill="rgb(218,135,72)" d="M 1994.84 365.716 C 1997.57 366.58 2002.03 367.497 2003.5 369.685 C 2002.15 380.355 1987.16 417.844 1982.62 429.454 C 1971.16 458.248 1961.38 487.984 1947.75 515.846 C 1943.57 524.413 1939.44 530.095 1932.27 536.351 C 1918.05 548.772 1877.01 555.676 1868.86 533.462 C 1881.82 538.01 1898.65 538.408 1911.61 533.538 C 1940.24 522.787 1946.68 489.466 1957.38 464.211 C 1970.81 432.481 1980.92 397.077 1994.84 365.716 z"/>
<path transform="translate(0,0)" fill="url(#Gradient5)" d="M 1360.4 379.787 C 1377.73 353.716 1406.86 346.575 1434.37 365.245 C 1441.53 370.106 1445.64 378.963 1449.25 386.686 C 1452.35 391.899 1455.04 397.755 1455.65 403.807 C 1458.68 433.624 1457.08 467.98 1457.31 497.922 C 1448.77 497.949 1421.97 498.558 1414.91 497.368 C 1413.59 494.943 1414.85 490.296 1415.65 487.705 C 1411.76 487.682 1410.42 488.373 1407.73 486.332 C 1406.73 478.456 1407.4 469.925 1407.31 461.952 C 1407.1 443.095 1408.43 422.528 1406.48 403.826 C 1360.18 393.717 1371.05 445.046 1370.34 473.062 C 1370.12 481.436 1370.36 489.53 1369.98 497.956 C 1360.09 498.022 1336.47 498.769 1327.66 497.596 C 1325.66 495.125 1325.92 491.911 1325.29 488.363 C 1323.23 488.225 1322.98 487.997 1321.28 486.779 C 1320.48 481.416 1320.99 454.424 1320.98 447.558 L 1320.88 358.17 L 1356.16 358.034 C 1357.21 365.018 1358.98 372.801 1360.4 379.787 z"/>
<path transform="translate(0,0)" fill="rgb(218,135,72)" d="M 1363.55 487.722 C 1363.43 469.746 1360.1 419.413 1365.7 405.3 C 1367.97 399.592 1372.04 394.278 1377.85 391.89 C 1384.21 389.274 1391.89 390.842 1398 393.534 C 1402.19 395.381 1404.86 399.745 1406.48 403.826 C 1360.18 393.717 1371.05 445.046 1370.34 473.062 C 1370.12 481.436 1370.36 489.53 1369.98 497.956 C 1360.09 498.022 1336.47 498.769 1327.66 497.596 C 1325.66 495.125 1325.92 491.911 1325.29 488.363 C 1334.04 487.207 1353.96 487.722 1363.55 487.722 z"/>
<path transform="translate(0,0)" fill="rgb(218,135,72)" d="M 1449.62 487.339 C 1449.79 464.873 1449.79 442.407 1449.62 419.942 C 1449.54 410.959 1448.53 394.537 1449.25 386.686 C 1452.35 391.899 1455.04 397.755 1455.65 403.807 C 1458.68 433.624 1457.08 467.98 1457.31 497.922 C 1448.77 497.949 1421.97 498.558 1414.91 497.368 C 1413.59 494.943 1414.85 490.296 1415.65 487.705 L 1449.62 487.339 z"/>
<path transform="translate(0,0)" fill="rgb(40,39,39)" d="M 826.102 426.22 C 823.05 423.953 818.691 417.363 817.084 413.822 C 812.604 404.138 812.223 393.055 816.026 383.086 C 827.877 352.328 873.905 351.032 900.767 359.838 C 917.167 365.214 924.429 379.088 930.882 394.074 C 933.379 399.274 933.724 401.259 934.879 406.947 C 921.694 408.065 911.942 407.81 898.796 406.615 C 897.272 404.531 893.787 399.518 892.248 397.785 C 884.641 396.746 868.957 395.833 862.361 399.871 C 861.413 401.588 861.04 402.074 860.961 404.076 C 885.378 409.93 917.885 405.93 931.024 432.95 C 972.549 500.086 852.79 525.411 823.087 476.761 C 814.598 465.263 811.857 460.366 809.37 446.424 C 821.163 447.451 837.686 446.876 850.295 447.247 C 851.947 450.156 853.654 453.033 855.414 455.878 C 866.037 461.472 882.781 463.759 891.93 454.319 C 886.557 451.903 881.108 451.277 875.327 450.194 C 853.881 446.177 840.639 443.145 826.102 426.22 z"/>
<path transform="translate(0,0)" fill="rgb(218,135,72)" d="M 931.024 432.95 C 972.549 500.086 852.79 525.411 823.087 476.761 C 826.942 478.161 832.18 481.985 836.578 483.974 C 862.354 495.632 903.638 494.814 923.257 471.872 C 933.201 460.244 932.421 447.002 931.024 432.95 z"/>
<path transform="translate(0,0)" fill="rgb(218,135,72)" d="M 826.102 426.22 C 829.47 427.663 835.902 430.042 838.898 431.518 C 848.238 436.119 887.863 440.147 891.614 448.516 L 891.93 454.319 C 886.557 451.903 881.108 451.277 875.327 450.194 C 853.881 446.177 840.639 443.145 826.102 426.22 z"/>
<path transform="translate(0,0)" fill="rgb(232,149,63)" d="M 860.961 404.076 C 858.714 403.403 855.32 401.285 854.083 399.27 C 853.025 397.538 852.74 395.442 853.299 393.49 C 855.862 384.461 870.768 382.369 878.63 385.06 C 887.112 387.962 887.855 389.31 891.908 396.872 L 892.248 397.785 C 884.641 396.746 868.957 395.833 862.361 399.871 C 861.413 401.588 861.04 402.074 860.961 404.076 z"/>
<path transform="translate(0,0)" fill="rgb(232,149,63)" d="M 930.882 394.074 C 933.379 399.274 933.724 401.259 934.879 406.947 C 921.694 408.065 911.942 407.81 898.796 406.615 C 897.272 404.531 893.787 399.518 892.248 397.785 L 891.908 396.872 C 899.363 396.843 926.651 397.813 930.882 394.074 z"/>
<path transform="translate(0,0)" fill="rgb(40,39,39)" d="M 963.009 425.576 C 943.201 405.734 948.758 374.893 973.421 362.177 C 990.005 353.626 1015.53 353.318 1033.4 358.172 C 1049.66 362.591 1058.96 374.739 1066.47 388.975 C 1070.76 395.201 1071.94 398.621 1073.55 406.053 C 1053.5 406.769 1042.89 409.695 1026.99 397.284 C 1020.66 397.043 1012.01 396.373 1006 397.705 L 1005.37 397.842 C 1001.22 398.766 999.313 400.52 996.151 403.198 C 1020.96 411.802 1051.11 402.73 1069 433.843 C 1072.88 440.044 1075.26 445.094 1076.28 452.527 C 1084.1 509.924 984.63 515.35 961.746 478.517 C 961.508 478.139 961.288 477.75 961.086 477.351 C 952.073 465.859 949.707 461.203 946.792 446.776 C 960.436 446.702 974.08 446.857 987.718 447.241 C 989.052 450.086 990.633 452.957 992.111 455.741 C 997.533 458.653 1003.54 460.306 1009.69 460.578 C 1017.13 460.963 1023.7 459.197 1029.35 454.151 L 1029.08 452.411 C 1022.88 451.416 1016.69 450.369 1010.5 449.272 C 992.945 446.07 973.678 441.037 963.009 425.576 z"/>
<path transform="translate(0,0)" fill="rgb(218,135,72)" d="M 1069 433.843 C 1072.88 440.044 1075.26 445.094 1076.28 452.527 C 1084.1 509.924 984.63 515.35 961.746 478.517 C 961.508 478.139 961.288 477.75 961.086 477.351 C 963.655 478.26 971.082 482.448 974.266 483.958 C 986.321 489.676 1000.22 491.232 1013.42 490.964 C 1029.2 490.644 1048.33 485.599 1059.39 473.592 C 1070.39 461.643 1069.48 448.79 1069 433.843 z"/>
<path transform="translate(0,0)" fill="rgb(232,149,63)" d="M 963.009 425.576 C 971.541 429.37 975.593 430.794 984.181 433.504 C 996.009 437.236 1022.71 439.676 1029.83 449.102 C 1029.85 451.376 1030.17 450.79 1029.08 452.411 C 1022.88 451.416 1016.69 450.369 1010.5 449.272 C 992.945 446.07 973.678 441.037 963.009 425.576 z"/>
<path transform="translate(0,0)" fill="rgb(232,149,63)" d="M 996.151 403.198 C 993.783 402.174 993.179 401.467 991.299 399.743 C 990.943 398.773 990.027 396.765 990.221 396.039 C 995.616 375.861 1021.18 383.961 1030.51 396.065 C 1030.51 396.065 1035.87 396.804 1036.29 396.862 L 1026.99 397.284 C 1020.66 397.043 1012.01 396.373 1006 397.705 L 1005.37 397.842 C 1001.22 398.766 999.313 400.52 996.151 403.198 z"/>
<path transform="translate(0,0)" fill="rgb(232,149,63)" d="M 1066.47 388.975 C 1070.76 395.201 1071.94 398.621 1073.55 406.053 C 1053.5 406.769 1042.89 409.695 1026.99 397.284 L 1036.29 396.862 C 1044.05 396.155 1058.6 398.154 1065.23 394.741 C 1066.34 394.168 1066.29 390.731 1066.47 388.975 z"/>
<path transform="translate(0,0)" fill="url(#Gradient4)" d="M 1484.03 311.474 C 1505.31 311.394 1566.16 309.55 1583.93 314.487 C 1594.43 317.368 1604.01 322.92 1611.72 330.604 C 1616.41 335.252 1623.44 344.911 1625.67 351.046 C 1643.61 376.065 1637.62 417.506 1612.02 435.769 C 1594.74 448.1 1574.49 447.604 1554.06 447.221 C 1551.54 447.174 1550.26 445.408 1548.94 443.627 L 1548.52 437.706 C 1546.4 437.863 1545.52 438.085 1543.59 437.051 C 1540.73 432.248 1542.02 407.269 1542 399.667 C 1560.19 400.429 1571.05 403.669 1583.22 387.906 C 1585.09 375.723 1585.14 373.184 1581.74 361.356 C 1568.6 358.818 1549.13 360.274 1534.9 359.368 C 1535.28 365.332 1535.53 368.965 1535.03 374.886 C 1532.67 372.564 1529.66 372.904 1526.32 372.806 C 1526.28 370.106 1526.08 368.586 1525.67 365.909 C 1522.77 363.207 1489.18 364.817 1483.01 364.924 C 1482.95 359.436 1483.29 354.285 1483.63 348.813 C 1483.96 336.37 1484.1 323.922 1484.03 311.474 z"/>
<path transform="translate(0,0)" fill="url(#Gradient3)" d="M 1625.67 351.046 C 1643.61 376.065 1637.62 417.506 1612.02 435.769 C 1594.74 448.1 1574.49 447.604 1554.06 447.221 C 1551.54 447.174 1550.26 445.408 1548.94 443.627 L 1548.52 437.706 C 1551.42 435.764 1570.93 436.437 1575.89 435.987 C 1603.19 433.508 1623.09 413.741 1627.18 386.827 C 1629.08 374.288 1626.48 363.524 1625.67 351.046 z"/>
<path transform="translate(0,0)" fill="rgb(232,149,63)" d="M 1483.63 348.813 L 1492.17 348.978 C 1509.04 348.705 1566.89 344.88 1577.76 355.48 C 1579.41 357.09 1580.63 359.358 1581.74 361.356 C 1568.6 358.818 1549.13 360.274 1534.9 359.368 C 1535.28 365.332 1535.53 368.965 1535.03 374.886 C 1532.67 372.564 1529.66 372.904 1526.32 372.806 C 1526.28 370.106 1526.08 368.586 1525.67 365.909 C 1522.77 363.207 1489.18 364.817 1483.01 364.924 C 1482.95 359.436 1483.29 354.285 1483.63 348.813 z"/>
<path transform="translate(0,0)" fill="rgb(252,250,248)" d="M 1483.63 348.813 L 1492.17 348.978 C 1491.94 351.873 1491.15 355.27 1492.3 357.505 C 1502.07 360.172 1524.33 357.64 1534.9 359.368 C 1535.28 365.332 1535.53 368.965 1535.03 374.886 C 1532.67 372.564 1529.66 372.904 1526.32 372.806 C 1526.28 370.106 1526.08 368.586 1525.67 365.909 C 1522.77 363.207 1489.18 364.817 1483.01 364.924 C 1482.95 359.436 1483.29 354.285 1483.63 348.813 z"/>
<path transform="translate(0,0)" fill="url(#Gradient2)" d="M 507.754 311.653 C 528.208 311.496 590.606 309.999 607.224 314.351 C 617.577 316.967 627.045 322.297 634.652 329.792 C 641.133 336.211 647.059 345.38 650.239 353.969 C 678.96 409.745 631.767 456.191 575.598 446.327 C 573.583 445.973 573.155 445.009 572.282 443.48 C 572.405 441.197 572.541 438.914 572.689 436.632 C 570.086 436.888 569.737 436.91 567.383 435.736 C 564.367 430.331 565.704 407.332 565.745 399.721 C 592.862 400.417 616.078 397.86 604.845 362.224 C 584.24 356.286 522.64 361.072 516.195 357.96 C 514.544 355.51 514.961 352.132 514.991 349.098 C 511.821 348.93 510.731 349.405 508.458 347.801 C 507.275 338.787 507.848 321.421 507.754 311.653 z"/>
<path transform="translate(0,0)" fill="rgb(218,135,72)" d="M 650.239 353.969 C 678.96 409.745 631.767 456.191 575.598 446.327 C 573.583 445.973 573.155 445.009 572.282 443.48 C 572.405 441.197 572.541 438.914 572.689 436.632 C 575.452 436.084 584.681 435.744 587.4 435.777 C 620.186 436.18 645.694 419.078 650.19 385.354 C 651.687 374.124 650.307 365.152 650.239 353.969 z"/>
<path transform="translate(0,0)" fill="rgb(232,149,63)" d="M 514.991 349.098 C 534.971 348.364 555.164 348.777 575.168 348.715 C 588.079 348.676 598.479 349.926 604.845 362.224 C 584.24 356.286 522.64 361.072 516.195 357.96 C 514.544 355.51 514.961 352.132 514.991 349.098 z"/>
<path transform="translate(0,0)" fill="url(#Gradient1)" d="M 1650.73 311.5 C 1659.26 310.559 1681.89 310.519 1691.2 311.579 C 1692.04 311.675 1692.47 315.017 1692.77 316.397 C 1696.13 319.088 1698.56 317.491 1700.48 320.494 C 1700.96 336.436 1699.98 351.791 1700.12 367.568 C 1700.53 410.721 1699.34 454.907 1700.63 497.967 C 1694.13 498.02 1662.62 498.732 1658.4 497.294 C 1656.63 494.582 1656.96 491.451 1656.95 488.191 C 1654.19 487.875 1653.78 487.768 1651.26 486.625 C 1648.72 479.822 1650.79 327.924 1650.73 311.5 z"/>
<path transform="translate(0,0)" fill="rgb(218,135,72)" d="M 1692.77 316.397 C 1696.13 319.088 1698.56 317.491 1700.48 320.494 C 1700.96 336.436 1699.98 351.791 1700.12 367.568 C 1700.53 410.721 1699.34 454.907 1700.63 497.967 C 1694.13 498.02 1662.62 498.732 1658.4 497.294 C 1656.63 494.582 1656.96 491.451 1656.95 488.191 C 1667.75 487.59 1680.91 487.741 1692.08 487.397 C 1691.54 448.402 1692.39 408.757 1692.03 369.687 C 1691.96 362.057 1691.56 322.01 1692.77 316.397 z"/>
<path transform="translate(0,0)" fill="rgb(40,39,39)" d="M 1092.98 358.758 C 1102.46 358.351 1124.76 357.902 1133.67 358.519 C 1135.67 360.692 1135.22 361.849 1135.63 365.198 C 1137.65 368.065 1141.38 367.504 1142.19 370.574 C 1144.32 378.628 1143.78 485.584 1142.52 497.863 C 1132.67 497.937 1109.73 498.681 1100.91 497.497 C 1099.2 495.417 1099.77 490.93 1099.9 488.026 C 1096.94 487.672 1096.42 487.538 1093.67 486.398 C 1092.23 480.238 1092.76 451.37 1092.79 443.012 L 1092.98 358.758 z"/>
<path transform="translate(0,0)" fill="rgb(218,135,72)" d="M 1134.32 487.194 C 1134.45 473.763 1133.41 371.697 1135.63 365.198 C 1137.65 368.065 1141.38 367.504 1142.19 370.574 C 1144.32 378.628 1143.78 485.584 1142.52 497.863 C 1132.67 497.937 1109.73 498.681 1100.91 497.497 C 1099.2 495.417 1099.77 490.93 1099.9 488.026 C 1107.51 487.147 1125.91 487.349 1134.32 487.194 z"/>
<path transform="translate(0,0)" fill="rgb(40,39,39)" d="M 1483.01 364.924 C 1489.18 364.817 1522.77 363.207 1525.67 365.909 C 1526.08 368.586 1526.28 370.106 1526.32 372.806 C 1529.66 372.904 1532.67 372.564 1535.03 374.886 C 1534.33 415.895 1534.34 456.912 1535.05 497.921 C 1528.14 497.935 1496.5 498.392 1491.73 497.204 C 1489.81 494.591 1489.84 491.332 1489.53 488.067 L 1484.97 487.754 C 1483.2 484.862 1483.54 376.954 1483.01 364.924 z"/>
<path transform="translate(0,0)" fill="rgb(218,135,72)" d="M 1526.32 372.806 C 1529.66 372.904 1532.67 372.564 1535.03 374.886 C 1534.33 415.895 1534.34 456.912 1535.05 497.921 C 1528.14 497.935 1496.5 498.392 1491.73 497.204 C 1489.81 494.591 1489.84 491.332 1489.53 488.067 C 1500.47 487.506 1515.21 487.875 1526.46 487.806 C 1526.19 451.621 1525.34 408.584 1526.32 372.806 z"/>
<path transform="translate(0,0)" fill="rgb(40,39,39)" d="M 507.095 365.579 C 516.819 365.257 539.983 364.145 548.875 365.404 C 550.661 367.75 550.322 369.106 550.733 372.301 L 551.216 372.543 C 553.603 373.723 554.895 373.983 557.479 374.578 C 558.88 385.834 557.886 419.056 557.798 432 C 557.654 453.175 559.217 477.423 558.718 498.034 C 551.3 498.117 518.069 499.582 513.866 496.545 C 512.888 493.239 513.701 490.929 515.239 487.774 C 512.139 487.737 510.306 487.996 507.76 486.303 C 506.701 475.779 507.439 452.316 507.491 440.818 C 507.599 415.738 507.467 390.657 507.095 365.579 z"/>
<path transform="translate(0,0)" fill="rgb(218,135,72)" d="M 550.733 372.301 L 551.216 372.543 C 553.603 373.723 554.895 373.983 557.479 374.578 C 558.88 385.834 557.886 419.056 557.798 432 C 557.654 453.175 559.217 477.423 558.718 498.034 C 551.3 498.117 518.069 499.582 513.866 496.545 C 512.888 493.239 513.701 490.929 515.239 487.774 L 550.714 487.191 C 550.744 471.114 547.955 381.376 550.733 372.301 z"/>
<path transform="translate(0,0)" fill="rgb(40,39,39)" d="M 1097.1 339.906 C 1075.01 303.843 1115.78 285.207 1137.42 313.768 C 1147.76 324.943 1147.57 338.099 1137.72 349.634 C 1121.59 356.589 1107.14 356.133 1097.1 339.906 z"/>
<path transform="translate(0,0)" fill="rgb(232,149,63)" d="M 1137.42 313.768 C 1147.76 324.943 1147.57 338.099 1137.72 349.634 C 1121.59 356.589 1107.14 356.133 1097.1 339.906 C 1099.03 340.027 1102.2 340.879 1104.33 341.152 C 1129.74 344.409 1136.23 338.57 1137.42 313.768 z"/>
<path transform="translate(0,0)" fill="rgb(232,149,63)" d="M 193.142 172.634 C 195.02 174.519 196.927 181.115 197.232 183.875 C 201.908 226.247 166.725 222.778 151.662 244.017 L 150.747 245.565 L 150.207 244.078 C 155.495 205.291 191.97 218.227 193.142 172.634 z"/>
<path transform="translate(0,0)" fill="rgb(232,149,63)" d="M 432.489 135.784 C 433.036 137.528 431.149 150.317 431.899 155.441 C 435.087 177.218 444.967 179.671 438.313 201.95 L 436.996 202.535 L 436.184 200.368 C 423.054 176.748 411.757 159.609 432.489 135.784 z"/>
<path transform="translate(0,0)" fill="rgb(232,149,63)" d="M 323.237 106.984 C 325.446 109.822 325.309 115.736 324.678 119.003 C 320.447 140.925 302.753 147.932 293.78 169.46 C 292.68 154.364 293.288 145.814 303.207 133.905 C 314.548 124.475 319.259 121.46 323.237 106.984 z"/>
<path transform="translate(0,0)" fill="rgb(232,149,63)" d="M 78.5547 313.727 C 80.0069 314.835 80.4108 317.37 81.0467 319.096 C 88.1191 338.292 70.5307 355.741 59.4687 369.417 C 58.7577 370.625 59.2708 370.177 57.7247 370.59 C 56.186 366.25 59.4543 352.635 61.5688 348.9 C 69.3173 335.216 76.0482 330.195 78.5547 313.727 z"/>
</svg>