<svg xmlns="http://www.w3.org/2000/svg" version="1.1" style="display: block; overflow: visible;" viewBox="147.96766662597656 -1071.1536865234375 693.1463470458984 1035.3728141784668" width="693.1463470458984" height="1035.3728141784668" preserveAspectRatio="none" overflow="visible">
<defs>
  <style>path { fill: #DC2626; }</style>
</defs>
<path transform="translate(-546.3016357421875, -987.8189544677734) matrix(1.6340744495391843, 0, 0, 1.6340744495391846, 628.3348388671874, -140.79107666015625)" fill="url(#Gradient8)" d="M 345.397 41.2811 C 384.685 79.1532 395.832 125.383 372.38 175.911 C 368.788 183.651 351.43 202.716 360.031 209.838 C 375.597 213.758 385.574 190.509 389.591 179.113 C 388.677 207.434 382.82 211.426 366.209 233.688 C 343.146 264.596 376.097 285.741 397.389 251.585 C 409.668 231.887 410.293 209.701 405.245 187.35 C 406.886 188.982 409.688 191.736 411.061 193.489 C 428.264 215.451 435.825 244.465 424.578 270.897 C 420.056 281.629 413.639 289.749 412.663 301.667 C 411.475 316.185 422.817 329.684 435.822 316.782 C 447.037 305.657 445.699 285.01 445.868 270.27 C 458.73 295.977 461.61 316.183 454.93 344.975 C 443.192 395.57 403.591 419.86 362.612 444.636 C 377.645 440.541 388.396 436.734 402.967 431.079 C 398.253 485.937 371.026 531.052 316.884 549.679 C 286.468 560.143 256.711 558.213 225.042 558.173 C 218.488 589.029 211.263 633.158 203.221 662.163 C 198.894 657.145 187.876 647.507 182.358 641.763 C 167.271 625.808 153.851 608.355 142.304 589.678 C 144.433 573.64 148.697 555.218 152.114 539.236 C 156.94 516.455 161.618 493.642 166.149 470.8 C 169.91 452.537 174.086 434.692 176.448 416.178 C 201.169 416.035 226.182 415.692 250.879 415.865 C 246.784 440.247 241.542 464.556 237.263 488.955 C 278.551 489.478 319.306 490.876 323.339 437.595 C 326.862 391.058 276.413 400.177 245.461 399.276 C 210.318 398.253 174.312 400.383 139.082 399.147 C 154.441 383.536 172.14 369.649 188.229 354.763 C 196.688 346.936 205.128 339.078 213.66 331.333 C 201.864 322.794 156.737 367.965 147.184 376.004 C 131.834 392.228 118.412 407.303 108.76 427.873 C 104.495 440.045 101.922 447.508 100.2 460.535 C 100.989 462.09 100.59 461.894 101.872 462.53 C 106.537 460.638 113.028 446.108 117.304 440.037 C 125.273 428.724 135.062 421.165 146.637 413.794 C 139.902 422.274 119.424 447.538 130.557 457.28 C 142.132 459.813 150.163 437.206 151.68 428.776 C 152.201 425.769 152.574 422.739 152.8 419.696 C 168.402 489.593 92.915 486.288 127.857 583.933 C 139.587 609.377 154.56 627.844 174.276 647.766 C 182.39 654.374 184.957 656.85 193.815 662.656 C 149.742 645.498 98.1065 619.569 74.902 576.002 C 80.4311 580.821 95.9137 593.737 103.314 590.198 L 103.314 587.767 C 99.1253 579.179 81.036 564.778 73.6897 557.204 C 53.2156 536.095 47.0419 522.018 46.4694 493.905 C 47.2155 496.396 48.0563 498.858 48.9901 501.284 C 51.8459 508.547 60.2704 524.202 70.1157 519.766 C 76.6252 510.172 58.8467 484.829 55.0766 474.205 C 41.5894 436.201 49.5231 401.697 78.4274 372.535 C 73.0167 383.886 60.278 415.828 76.2795 423.381 C 95.9248 423.013 94.2344 376.963 95.2354 363.323 C 98.0277 325.274 110.858 287.841 146.946 269.078 C 156.933 263.885 167.821 257.171 175.935 249.507 C 169.236 271.605 160.011 274.913 144.727 290.56 C 136.885 298.589 133.513 320.299 152.522 316.679 C 185.114 310.471 189.529 268.252 199.989 242.625 C 214.168 205.567 239.121 180.807 279.562 175.474 C 269.794 180.455 230.137 207.71 250.872 225.778 C 253.349 227.936 264.316 225.782 267.629 223.917 C 299.882 205.752 324.71 169.278 340.02 136.213 C 353.06 104.488 358.161 72.9684 345.397 41.2811 z" id="svg-el-0" data-selectable="true"/>
<path transform="translate(-546.3016357421875, -987.8189544677734) matrix(1.6340744495391843, 0, 0, 1.6340744495391846, 628.3348388671874, -140.79107666015625)" fill="url(#FlameGrad)" d="M 358.535 150.346 C 353.954 174.624 346.925 187.764 333.76 209.816 C 316.962 237.815 286.2 260.825 280.543 294.221 C 279.527 300.216 281.711 305.721 288.366 305.904 C 309.011 306.471 314.53 279.633 324.422 266.113 C 328.307 260.803 330.611 258.492 335.485 254.167 C 326.291 276.204 312.72 323.366 357.763 314.713 C 360.681 314.152 366.267 311.055 369.11 309.606 C 383.244 306.591 384.538 298.827 393.272 292.687 L 395.872 293.893 C 390.372 311.074 383.144 331.127 391.554 348.6 C 397.279 360.494 412.146 360.246 422.099 354.454 C 428.315 350.837 431.369 346.441 435.535 340.672 C 424.686 384.385 392.557 412.673 355.712 435.496 C 368.183 422.245 391.686 399.176 391.282 380.143 C 391.081 370.716 383.314 361.481 376.544 355.526 C 349.629 331.854 317.879 332.532 284.717 332.545 L 238.865 332.688 C 232.992 332.717 218.395 333.394 213.66 331.333 C 201.864 322.794 156.737 367.965 147.184 376.004 C 146.42 364.913 165.718 353.74 166.467 339.965 C 185.188 320.429 206.187 298.736 215.452 272.754 C 217.601 266.73 220.064 260.672 222.32 254.667 C 229.386 269.062 219.904 295.469 214.296 309.201 C 228.499 294.38 245.734 281.08 260.708 266.827 C 288.679 240.204 319.086 215.96 340.73 183.472 C 347.727 172.97 353.028 161.652 358.535 150.346 z" id="svg-el-1" data-selectable="true"/>
<path transform="translate(-546.3016357421875, -987.8189544677734) matrix(1.6340744495391843, 0, 0, 1.6340744495391846, 628.3348388671874, -140.79107666015625)" fill="url(#EmberGrad)" d="M 101.872 462.53 C 106.537 460.638 113.028 446.108 117.304 440.037 C 125.273 428.724 135.062 421.165 146.637 413.794 C 139.902 422.274 119.424 447.538 130.557 457.28 C 142.132 459.813 150.163 437.206 151.68 428.776 C 152.201 425.769 152.574 422.739 152.8 419.696 C 168.402 489.593 92.915 486.288 127.857 583.933 C 139.587 609.377 154.56 627.844 174.276 647.766 C 163.189 648.914 128.159 611.057 118.977 602.684 C 116.68 600.59 118.341 589.325 115.114 584.432 C 104.207 567.894 90.3984 553.786 80.3307 536.661 C 80.5235 536.455 80.7151 536.248 80.9055 536.04 C 99.8088 515.329 83.5784 498.545 75.6247 476.729 C 71.3428 464.984 70.2148 461.549 69.6199 449.098 C 72.7093 452.537 76.3087 457.642 80.9553 458.636 C 96.3728 461.936 103.968 436.665 106.931 425.451 L 108.76 427.873 C 104.495 440.045 101.922 447.508 100.2 460.535 C 100.989 462.09 100.59 461.894 101.872 462.53 z" id="svg-el-2" data-selectable="true"/>
<path transform="translate(-546.3016357421875, -987.8189544677734) matrix(1.6340744495391843, 0, 0, 1.6340744495391846, 628.3348388671874, -140.79107666015625)" fill="rgb(8,7,7)" d="M 101.872 462.53 C 106.537 460.638 113.028 446.108 117.304 440.037 C 125.273 428.724 135.062 421.165 146.637 413.794 C 139.902 422.274 119.424 447.538 130.557 457.28 C 142.132 459.813 150.163 437.206 151.68 428.776 C 152.201 425.769 152.574 422.739 152.8 419.696 C 168.402 489.593 92.915 486.288 127.857 583.933 L 126.538 584.319 C 126.024 584.049 125.011 583.408 124.713 582.903 C 110.133 558.43 99.5946 528.249 108.949 499.976 C 110.381 495.648 111.968 491.856 113.822 487.724 C 115.193 484.667 118.394 479.223 118.677 476.158 L 116.982 475.987 C 109.712 479.394 104.454 487.675 99.5377 494.142 C 98.5369 480.071 101.588 477.279 103.686 464.271 L 101.872 462.53 z" id="svg-el-3" data-selectable="true"/>
<path transform="translate(-546.3016357421875, -987.8189544677734) matrix(1.6340744495391843, 0, 0, 1.6340744495391846, 628.3348388671874, -140.79107666015625)" fill="url(#EmberGrad)" d="M 106.931 425.451 C 116.315 392.98 108.715 362.108 127.105 332.617 L 126.937 338.636 C 125.723 389.223 148.854 359.579 166.467 339.965 C 165.718 353.74 146.42 364.913 147.184 376.004 C 131.834 392.228 118.412 407.303 108.76 427.873 L 106.931 425.451 z" id="svg-el-4" data-selectable="true"/>
<path transform="translate(-546.3016357421875, -987.8189544677734) matrix(1.6340744495391843, 0, 0, 1.6340744495391846, 628.3348388671874, -140.79107666015625)" fill="url(#EmberGrad)" d="M 402.781 273.809 C 400.695 280.577 398.39 287.275 395.872 293.893 L 393.272 292.687 C 384.538 298.827 383.244 306.591 369.11 309.606 C 383.603 298.415 391.396 287.791 402.781 273.809 z" id="svg-el-5" data-selectable="true"/>
















































<path transform="translate(-546.3016357421875, -987.8189544677734) matrix(1.6340744495391843, 0, 0, 1.6340744495391846, 628.3348388671874, -140.79107666015625)" fill="rgb(232,149,63)" d="M 193.142 172.634 C 195.02 174.519 196.927 181.115 197.232 183.875 C 201.908 226.247 166.725 222.778 151.662 244.017 L 150.747 245.565 L 150.207 244.078 C 155.495 205.291 191.97 218.227 193.142 172.634 z" id="svg-el-54" data-selectable="true"/>
<path transform="translate(-546.3016357421875, -987.8189544677734) matrix(1.6340744495391843, 0, 0, 1.6340744495391846, 628.3348388671874, -140.79107666015625)" fill="rgb(232,149,63)" d="M 432.489 135.784 C 433.036 137.528 431.149 150.317 431.899 155.441 C 435.087 177.218 444.967 179.671 438.313 201.95 L 436.996 202.535 L 436.184 200.368 C 423.054 176.748 411.757 159.609 432.489 135.784 z" id="svg-el-55" data-selectable="true"/>
<path transform="translate(-546.3016357421875, -987.8189544677734) matrix(1.6340744495391843, 0, 0, 1.6340744495391846, 628.3348388671874, -140.79107666015625)" fill="rgb(232,149,63)" d="M 323.237 106.984 C 325.446 109.822 325.309 115.736 324.678 119.003 C 320.447 140.925 302.753 147.932 293.78 169.46 C 292.68 154.364 293.288 145.814 303.207 133.905 C 314.548 124.475 319.259 121.46 323.237 106.984 z" id="svg-el-56" data-selectable="true"/>
<path transform="translate(-546.3016357421875, -987.8189544677734) matrix(1.6340744495391843, 0, 0, 1.6340744495391846, 628.3348388671874, -140.79107666015625)" fill="rgb(232,149,63)" d="M 78.5547 313.727 C 80.0069 314.835 80.4108 317.37 81.0467 319.096 C 88.1191 338.292 70.5307 355.741 59.4687 369.417 C 58.7577 370.625 59.2708 370.177 57.7247 370.59 C 56.186 366.25 59.4543 352.635 61.5688 348.9 C 69.3173 335.216 76.0482 330.195 78.5547 313.727 z" id="svg-el-57" data-selectable="true"/>
</svg>